<svg xmlns="http://www.w3.org/2000/svg" width="600" height="246" viewBox="0 0 600 246">
  <defs>
    <style>
      .cls-1 {
        fill: #16a3e4;
      }

      .cls-1, .cls-2 {
        fill-rule: evenodd;
      }

      .cls-2 {
        fill: #0098e2;
      }
    </style>
  </defs>
  <path id="GESTIÓN_DE_RELEASES" data-name="GESTIÓN DE RELEASES" class="cls-1" d="M48.2,209.57v10.41a16.243,16.243,0,0,1-8.988,2.91,13.7,13.7,0,1,1-.049-27.38,15.626,15.626,0,0,1,10.355,4l2.247-2.96a19.251,19.251,0,0,0-12.6-4.736c-10.062,0-18.024,7.647-18.024,17.366A17.559,17.559,0,0,0,38.964,226.64a21,21,0,0,0,12.7-4.539V209.57H48.2ZM84.33,195.708v-3.8h-23.2v34.533H84.965v-3.749H65.036v-11.84H82.279v-3.8H65.036V195.708H84.33Zm18.747-3.947c-7.083,0-11.821,3.5-11.821,8.929,0,12.383,19.246,7.548,19.2,16.626,0,3.305-3.078,5.328-8.011,5.328a16.923,16.923,0,0,1-11.381-4.884L89.3,221.312a19.412,19.412,0,0,0,13.091,5.278c7.327,0,12.358-3.7,12.358-9.472,0.049-12.53-19.2-7.893-19.2-16.773,0-2.911,2.882-4.588,7.278-4.588a17.538,17.538,0,0,1,9.427,2.911l1.661-3.7A20.085,20.085,0,0,0,103.077,191.761Zm41.266,3.947v-3.8H118.112v3.8h11.137v30.734h3.908V195.708h11.186Zm9.565,30.734V191.909H150v34.533h3.907Zm31.99-43.66-3.859-1.874-5.862,6.709h3.664Zm-6.936,9.028c-10.014,0-17.927,7.6-17.927,17.366a17.907,17.907,0,0,0,35.8,0C196.839,199.457,188.926,191.81,178.962,191.81Zm0,3.75a13.644,13.644,0,1,1-13.97,13.616A13.722,13.722,0,0,1,178.962,195.56Zm53.425,30.882V191.909h-3.859v27.775l-20.515-27.775h-4.055v34.533h3.908V198.717l20.515,27.725h4.006Zm23.772-34.533v34.533h13.676c10.063,0,17.732-7.449,17.732-17.266s-7.62-17.267-17.585-17.267H256.159Zm3.907,3.8h9.818a13.494,13.494,0,1,1,.147,26.985h-9.965V195.708Zm57.822,0v-3.8h-23.2v34.533h23.837v-3.749H298.594v-11.84h17.242v-3.8H298.594V195.708h19.294Zm44.337,30.734h4.445L358.659,214.7c4.934-1.628,7.669-5.476,7.669-11.2,0-7.35-4.933-11.593-13.481-11.593H339.854v34.533h3.907v-10.9h9.086c0.781,0,1.563-.05,2.3-0.1Zm-18.464-14.7V195.708h9.086c6.2,0,9.72,2.664,9.72,7.893,0,5.377-3.517,8.14-9.72,8.14h-9.086Zm54.6-16.033v-3.8h-23.2v34.533H399v-3.749H379.066v-11.84h17.243v-3.8H379.066V195.708H398.36Zm12.5,26.985V191.909h-3.908v34.533h18.9v-3.749h-15Zm44.54-26.985v-3.8h-23.2v34.533H456.03v-3.749H436.1v-11.84h17.242v-3.8H436.1V195.708H455.4Zm30.225,22,3.81,8.732h4.25l-15.289-34.533h-4.054L459,226.442h4.152l3.81-8.732H485.62Zm-1.66-3.8H468.622l7.62-17.514Zm24.852-22.151c-7.083,0-11.821,3.5-11.821,8.929,0,12.383,19.245,7.548,19.2,16.626,0,3.305-3.077,5.328-8.01,5.328A16.925,16.925,0,0,1,496.8,217.76l-1.758,3.552a19.411,19.411,0,0,0,13.091,5.278c7.327,0,12.358-3.7,12.358-9.472,0.049-12.53-19.2-7.893-19.2-16.773,0-2.911,2.882-4.588,7.278-4.588A17.541,17.541,0,0,1,518,198.668l1.66-3.7A20.081,20.081,0,0,0,508.812,191.761Zm42.877,3.947v-3.8h-23.2v34.533h23.837v-3.749H532.4v-11.84h17.243v-3.8H532.4V195.708h19.294Zm18.747-3.947c-7.083,0-11.821,3.5-11.821,8.929,0,12.383,19.245,7.548,19.2,16.626,0,3.305-3.078,5.328-8.011,5.328a16.922,16.922,0,0,1-11.381-4.884l-1.759,3.552a19.413,19.413,0,0,0,13.091,5.278c7.327,0,12.358-3.7,12.358-9.472,0.049-12.53-19.2-7.893-19.2-16.773,0-2.911,2.881-4.588,7.278-4.588a17.538,17.538,0,0,1,9.427,2.911l1.661-3.7A20.085,20.085,0,0,0,570.436,191.761Z"/>
  <path id="SGRM" class="cls-2" d="M70,16.495c-27.623,0-46.039,13.141-46.039,33.56,0,50.946,82.269,28.3,81.869,72.578,0,16.577-15.413,27.09-39.433,27.09-16.414,0-34.229-7.278-45.639-19.206l-4.4,7.48c12.21,12.13,31.226,20.419,49.842,20.419,29.225,0,48.641-14.152,48.641-35.985,0.4-52.159-81.869-29.921-81.869-72.982C32.968,34.69,47.38,25.39,69.6,25.39c12.01,0,26.222,3.437,36.631,10.311l3.8-7.682C99.624,21.144,84.211,16.495,70,16.495ZM252.152,88.87v46.9a67.283,67.283,0,0,1-41.635,14.556c-35.43,0-64.254-28.1-64.254-62.873,0-34.57,28.824-62.671,64.254-62.671a66.081,66.081,0,0,1,44.238,16.78l5-6.267a74.359,74.359,0,0,0-49.242-18.6c-40.034,0-72.661,31.538-72.661,70.758s32.427,70.96,72.261,70.96a76.7,76.7,0,0,0,49.642-18.4V88.87h-7.607Zm146.523,69.343h10.009l-35.03-49.329c22.219-5.66,34.429-21.429,34.429-45.487,0-29.516-19.616-46.5-54.246-46.5H304.4V158.213H312.8v-47.1h41.034a73.993,73.993,0,0,0,11.81-.808ZM312.8,102.819V25.188h41.235c29.224,0,45.838,13.545,45.838,38.412,0,25.271-16.614,39.22-45.838,39.22H312.8Zm271.426,55.394V16.9h-11.61L516.772,128.09,460.525,16.9h-11.61V158.213h8.007V28.625L514.77,142.848h3.8L576.022,28.625l0.2,129.588h8.007Z"/>
</svg>
