<svg id="svg" xmlns="http://www.w3.org/2000/svg" xmlns:xlink="http://www.w3.org/1999/xlink" width="400" height="387.5" viewBox="0, 0, 400,387.5"><g id="svgg"><path id="path0" d="M62.478 1.466 C 14.481 16.828,24.447 87.500,74.609 87.500 C 113.291 87.500,133.104 41.913,106.749 13.551 C 95.874 1.847,77.207 -3.248,62.478 1.466 M139.236 9.110 C 129.965 13.680,128.900 26.213,137.243 32.577 L 140.112 34.766 252.283 35.156 C 376.770 35.590,366.681 35.135,370.703 40.496 C 372.245 42.551,372.268 43.954,372.468 148.047 C 372.697 266.885,373.201 257.011,366.716 260.729 L 363.672 262.474 252.734 262.500 L 141.797 262.526 138.695 264.283 C 130.706 268.807,129.136 279.040,135.389 285.832 C 139.057 289.817,139.353 289.844,180.444 289.844 L 218.750 289.844 218.750 313.947 C 218.750 343.405,219.949 346.429,231.636 346.429 C 243.054 346.429,244.531 342.602,244.531 313.035 L 244.531 289.844 306.055 289.825 C 345.659 289.812,368.831 289.517,371.094 288.996 C 383.604 286.115,394.632 275.800,398.466 263.394 C 400.821 255.772,400.872 42.003,398.520 34.446 C 394.712 22.210,384.151 12.316,371.333 8.978 C 364.264 7.137,142.984 7.263,139.236 9.110 M247.035 70.998 C 241.544 72.912,237.797 76.070,234.848 81.269 L 232.422 85.547 232.200 127.650 C 231.949 175.539,231.860 174.722,238.034 181.322 C 244.254 187.973,246.757 188.611,267.814 188.921 C 288.511 189.226,289.844 188.934,289.844 184.087 C 289.844 179.115,289.032 178.906,269.716 178.906 C 239.801 178.906,241.186 181.480,241.547 126.563 C 241.824 84.544,241.677 85.736,247.059 81.898 L 249.609 80.078 291.066 79.863 L 332.523 79.648 335.207 81.432 C 341.184 85.404,341.406 86.708,341.406 117.744 L 341.406 145.313 332.227 145.330 C 313.991 145.364,308.244 151.564,308.217 171.231 C 308.196 187.136,310.313 189.453,324.867 189.453 C 338.456 189.453,346.338 184.850,349.609 175.002 C 351.556 169.140,351.018 85.913,349.009 82.237 C 346.676 77.968,342.907 74.218,338.742 72.020 L 334.766 69.922 292.969 69.739 C 254.070 69.568,250.885 69.655,247.035 70.998 M254.688 95.844 C 251.422 97.041,250.584 101.365,253.125 103.906 C 254.645 105.427,255.729 105.469,293.359 105.469 C 336.041 105.469,335.156 105.573,335.156 100.540 C 335.156 95.502,336.924 95.718,294.399 95.558 C 273.202 95.479,255.332 95.607,254.688 95.844 M22.350 100.235 C 20.536 102.049,14.798 123.571,8.562 151.953 C 2.727 178.506,-1.069 207.394,0.684 211.903 C 1.224 213.290,5.715 217.173,13.478 222.964 C 20.057 227.872,25.926 232.795,26.520 233.905 C 27.455 235.653,27.046 245.464,23.442 307.653 C 19.072 383.080,19.085 382.153,22.356 385.425 L 24.432 387.500 40.010 387.500 L 55.589 387.500 57.796 385.293 C 59.606 383.483,60.087 382.183,60.470 378.067 C 61.017 372.182,66.413 265.235,66.409 260.352 L 66.406 257.031 74.574 257.031 L 82.742 257.031 83.136 259.570 C 83.353 260.967,85.137 287.422,87.100 318.359 C 91.380 385.799,91.065 382.571,93.581 384.902 C 95.479 386.662,95.975 386.719,109.452 386.719 C 124.798 386.719,126.618 386.310,128.447 382.457 C 129.606 380.014,127.143 301.938,122.295 187.500 C 120.374 142.135,120.339 144.938,122.849 142.424 L 124.996 140.274 167.381 139.837 C 218.613 139.308,212.144 141.245,221.717 123.561 C 230.710 106.947,230.830 103.852,222.517 102.817 C 205.653 100.717,81.250 97.165,81.250 98.783 C 81.250 98.974,82.004 100.408,82.926 101.971 L 84.603 104.812 82.457 109.301 L 80.312 113.790 84.821 147.326 C 87.703 168.766,89.120 181.694,88.750 183.171 C 88.201 185.358,74.479 200.288,73.451 199.818 C 71.558 198.951,58.623 183.942,58.231 182.157 C 57.963 180.938,59.693 165.527,62.075 147.911 C 67.019 111.348,66.951 112.493,64.479 107.813 L 62.622 104.297 65.454 101.367 L 68.286 98.438 46.217 98.438 C 24.227 98.438,24.141 98.444,22.350 100.235 M252.855 124.085 C 251.148 125.972,251.212 129.128,252.991 130.738 C 255.425 132.941,331.376 132.687,333.594 130.469 C 335.471 128.592,335.577 126.730,333.940 124.393 L 332.724 122.656 293.436 122.656 C 256.367 122.656,254.075 122.737,252.855 124.085 M254.688 150.525 C 251.420 151.740,250.584 156.053,253.125 158.594 C 255.617 161.086,300.706 161.012,303.206 158.512 C 304.917 156.802,304.847 152.973,303.072 151.196 C 302.224 150.347,256.860 149.718,254.688 150.525 M340.974 156.985 C 344.893 161.316,341.787 174.735,335.945 178.711 C 333.321 180.497,320.205 181.409,319.254 179.871 C 317.900 177.681,318.480 162.450,319.996 160.383 C 323.594 155.478,337.562 153.215,340.974 156.985 M151.694 355.583 C 143.717 359.531,141.622 369.713,147.379 376.555 C 151.576 381.543,146.342 381.250,231.338 381.250 L 308.847 381.250 312.161 379.308 C 321.322 373.939,320.635 360.560,310.930 355.356 C 308.350 353.972,304.745 353.906,231.653 353.907 L 155.078 353.907 151.694 355.583 " stroke="none" fill="#000000" fill-rule="evenodd"></path></g></svg>