<svg width="NaN" height="NaN" xmlns="http://www.w3.org/2000/svg">

 <g>
  <title>background</title>
  <rect transform="translate(-3, -1) translate(-0)" fill="#000000" id="canvas_background" height="NaN" width="NaN" y="-1" x="-1"/>
 </g>
 <g>
  <title>Layer 1</title>
  <g transform="translate(-3, -1)" id="svgg">
   <path fill-rule="evenodd" fill="#c9c9c9" d="m111.566048,20.280977c-16.43927,4.943233 -13.025856,27.68424 4.154953,27.68424c13.248848,0 20.03492,-14.669098 11.008156,-23.795496c-3.724777,-3.766144 -10.118332,-5.405621 -15.163109,-3.888744m26.290108,2.459711c-3.175385,1.470551 -3.540146,5.503447 -0.682617,7.551277l0.982635,0.704372l38.419312,0.1255c42.637604,0.139656 39.182068,-0.006754 40.559616,1.718315c0.528137,0.661274 0.536026,1.112728 0.604507,34.608044c0.078415,38.23999 0.251068,35.062729 -1.970078,36.259109l-1.042603,0.561508l-37.996994,0.008362l-37.996613,0.008377l-1.062454,0.565353c-2.736282,1.455757 -3.274017,4.74855 -1.132309,6.934105c1.256287,1.282295 1.357681,1.290985 15.43161,1.290985l13.120056,0l0,7.755943c0,9.479034 0.410645,10.452133 4.413528,10.452133c3.910751,0 4.416611,-1.231476 4.416611,-10.745613l0,-7.462463l21.072357,-0.006111c13.564621,-0.004173 21.50119,-0.099091 22.276291,-0.266762c4.284744,-0.927055 8.061905,-4.246239 9.375076,-8.238266c0.80661,-2.452629 0.824081,-71.23978 0.018494,-73.671482c-1.304245,-3.937336 -4.921478,-7.121058 -9.311691,-8.195168c-2.421188,-0.592398 -78.211014,-0.551849 -79.494736,0.04248m36.92186,19.914486c-1.880722,0.615887 -3.164078,1.63208 -4.174103,3.305023l-0.830948,1.376587l-0.076019,13.548012c-0.085953,15.409843 -0.116486,15.146942 1.998184,17.270714c2.130356,2.140175 2.987656,2.345459 10.199799,2.445229c7.088867,0.098152 7.545456,0.004189 7.545456,-1.555496c0,-1.599907 -0.278122,-1.667168 -6.893997,-1.667168c-10.246063,0 -9.771683,0.82827 -9.648056,-16.843052c0.094879,-13.520977 0.04454,-13.137421 1.887924,-14.372421l0.873383,-0.585644l14.199295,-0.069199l14.199249,-0.069168l0.919312,0.574059c2.04715,1.278122 2.123199,1.697731 2.123199,11.68457l0,8.871216l-3.143875,0.005478c-6.245956,0.010941 -8.21434,2.005981 -8.223587,8.334503c-0.007172,5.117935 0.717896,5.863503 5.702713,5.863503c4.654327,0 7.353989,-1.481163 8.474335,-4.650063c0.666855,-1.886299 0.482574,-28.667305 -0.205536,-29.85017c-0.799057,-1.373688 -2.089935,-2.580372 -3.516464,-3.287655l-1.361847,-0.675102l-14.315735,-0.058891c-13.323166,-0.055031 -14.414032,-0.027023 -15.732681,0.405136m2.621185,7.994995c-1.118622,0.385193 -1.405624,1.776569 -0.535324,2.594223c0.520599,0.489429 0.891891,0.502937 13.780396,0.502937c14.618851,0 14.315735,0.033466 14.315735,-1.586052c0,-1.621143 0.60556,-1.551632 -13.959549,-1.603127c-7.260071,-0.025421 -13.380692,0.01577 -13.601257,0.092018m-79.577248,1.412952c-0.621307,0.583729 -2.586594,7.509129 -4.722473,16.641964c-1.998535,8.544289 -3.298683,17.839943 -2.698265,19.290871c0.184937,0.446289 1.723152,1.695786 4.382027,3.559219c2.253349,1.579308 4.263527,3.163445 4.466972,3.52063c0.320236,0.562477 0.180168,3.719475 -1.054237,23.73082c-1.49675,24.271103 -1.492302,23.972824 -0.371964,25.025681l0.711044,0.667694l5.335571,0l5.335915,0l0.755905,-0.710175c0.619926,-0.582428 0.78466,-1.000748 0.915848,-2.325211c0.187355,-1.893677 2.035522,-36.307365 2.034149,-37.878632l-0.001022,-1.068634l2.797585,0l2.797592,0l0.134964,0.817009c0.074318,0.449532 0.685349,8.96228 1.357681,18.917274c1.465927,21.701035 1.358047,20.662308 2.219772,21.412399c0.650101,0.566299 0.819984,0.584656 5.435936,0.584656c5.256088,0 5.879471,-0.131592 6.505905,-1.371429c0.396973,-0.786118 -0.44664,-25.90963 -2.107101,-62.733772c-0.657974,-14.597672 -0.669937,-13.695709 0.189758,-14.504669l0.735367,-0.691833l14.517136,-0.140617c17.547256,-0.170235 15.331619,0.453056 18.610397,-5.237331c3.0802,-5.346115 3.121277,-6.342018 0.274017,-6.67506c-5.776031,-0.675747 -48.38485,-1.818714 -48.38485,-1.298084c0,0.061459 0.258247,0.522907 0.574028,1.02586l0.574402,0.914177l-0.735031,1.444477l-0.734673,1.444481l1.544357,10.791309c0.987106,6.89901 1.472443,11.059013 1.345711,11.534294c-0.188026,0.703743 -4.887894,5.50795 -5.239998,5.356712c-0.648369,-0.278984 -5.078674,-5.10862 -5.212959,-5.682999c-0.091782,-0.39225 0.500755,-5.35125 1.31662,-11.019775c1.693336,-11.765331 1.670044,-11.396893 0.823372,-12.902824l-0.636024,-1.131397l0.969978,-0.942818l0.969963,-0.942497l-7.558769,0c-7.531715,0 -7.561172,0.001915 -8.174606,0.578232m78.94944,7.674519c-0.584641,0.607204 -0.562714,1.622753 0.046585,2.140816c0.833664,0.708885 26.847382,0.627148 27.60704,-0.086559c0.642899,-0.603985 0.679184,-1.203144 0.118515,-1.955147l-0.416489,-0.558926l-13.45639,0c-12.69635,0 -13.4814,0.026054 -13.899261,0.459816m0.627808,8.507927c-1.119308,0.390976 -1.405624,1.778816 -0.535324,2.596458c0.853516,0.801895 16.296783,0.778084 17.153061,-0.026382c0.586044,-0.550232 0.562057,-1.782341 -0.045898,-2.354149c-0.290436,-0.273209 -15.827896,-0.475601 -16.571838,-0.215927m29.553528,2.07872c1.34227,1.393639 0.278442,5.711632 -1.722504,6.991051c-0.898697,0.574722 -5.391037,0.868172 -5.716751,0.37326c-0.46376,-0.704704 -0.26506,-5.605774 0.254166,-6.270882c1.23233,-1.578354 6.016434,-2.306557 7.185089,-1.09343m-64.82962,63.905388c-2.732178,1.270401 -3.449707,4.546799 -1.477921,6.748413c1.437515,1.605057 -0.355164,1.510757 28.756485,1.510757l26.547363,0l1.135071,-0.624863c3.13765,-1.727676 2.90239,-6.032806 -0.421646,-7.707352c-0.883667,-0.445358 -2.118408,-0.466583 -27.152878,-0.466278l-26.227448,0l-1.159027,0.539322" id="path0"/>
  </g>
 </g>
</svg>